<svg xmlns="http://www.w3.org/2000/svg" xmlns:xlink="http://www.w3.org/1999/xlink" width="500" zoomAndPan="magnify" viewBox="0 0 375 374.999991" height="500" preserveAspectRatio="xMidYMid meet" version="1.0"><path fill="#000000" d="M 195.773438 187.199219 L 199.125 212.824219 C 199.605469 216.566406 205.171875 215.734375 204.6875 212.078125 L 201.335938 186.628906 C 207.449219 185.753906 213.472656 184.242188 219.320312 182.136719 L 231.738281 205.15625 C 232.480469 206.515625 234.191406 207.019531 235.546875 206.273438 C 236.90625 205.550781 237.410156 203.84375 236.664062 202.484375 L 224.554688 180.058594 C 229.371094 177.976562 234.125 175.414062 238.722656 172.390625 L 255.742188 192.082031 C 256.769531 193.265625 258.523438 193.375 259.703125 192.367188 C 260.867188 191.359375 260.996094 189.585938 259.988281 188.425781 L 243.300781 169.128906 C 245.054688 167.835938 246.804688 166.566406 248.46875 165.121094 C 249.652344 164.113281 249.785156 162.339844 248.777344 161.179688 C 247.769531 159.996094 245.996094 159.863281 244.832031 160.871094 C 211.71875 189.34375 163.90625 188.992188 131.097656 159.886719 C 129.960938 158.855469 128.164062 158.964844 127.15625 160.128906 C 126.128906 161.289062 126.214844 163.0625 127.375 164.089844 C 129.128906 165.648438 130.945312 167.09375 132.785156 168.492188 L 115.570312 188.425781 C 114.5625 189.585938 114.695312 191.359375 115.855469 192.367188 C 117.039062 193.375 118.789062 193.265625 119.820312 192.082031 L 137.40625 171.734375 C 141.832031 174.734375 146.496094 177.320312 151.378906 179.488281 L 138.894531 202.484375 C 138.152344 203.84375 138.65625 205.550781 140.011719 206.273438 C 141.371094 207.019531 143.078125 206.515625 143.824219 205.15625 L 156.527344 181.613281 C 162.265625 183.804688 168.199219 185.378906 174.246094 186.34375 L 170.871094 212.078125 C 170.675781 213.609375 171.75 215.035156 173.28125 215.230469 C 173.414062 215.253906 173.542969 215.253906 173.652344 215.253906 C 175.035156 215.253906 176.238281 214.222656 176.433594 212.824219 L 179.808594 187.152344 C 187.34375 187.898438 191.394531 187.546875 195.773438 187.199219 " fill-opacity="1" fill-rule="nonzero"/></svg>