<svg xmlns="http://www.w3.org/2000/svg" xmlns:xlink="http://www.w3.org/1999/xlink" width="500" zoomAndPan="magnify" viewBox="0 0 375 374.999991" height="500" preserveAspectRatio="xMidYMid meet" version="1.0"><defs><clipPath id="b61702b476"><path d="M 112.5 145.78125 L 262.5 145.78125 L 262.5 229.03125 L 112.5 229.03125 Z M 112.5 145.78125 " clip-rule="nonzero"/></clipPath></defs><path fill="#100f0d" d="M 187.496094 173.691406 C 179.917969 173.691406 173.753906 179.84375 173.753906 187.402344 C 173.753906 194.96875 179.917969 201.125 187.496094 201.125 C 195.078125 201.125 201.25 194.96875 201.25 187.402344 C 201.25 179.84375 195.078125 173.691406 187.496094 173.691406 " fill-opacity="1" fill-rule="nonzero"/><g clip-path="url(#b61702b476)"><path fill="#100f0d" d="M 253.082031 188.273438 C 252.113281 189.363281 233.652344 209.847656 208.488281 218.316406 C 218.203125 211.621094 224.582031 200.4375 224.582031 187.792969 C 224.582031 174.113281 217.117188 162.140625 206.039062 155.71875 C 232.445312 163.625 252.085938 185.417969 253.085938 186.542969 L 253.851562 187.40625 Z M 121.914062 188.273438 L 121.144531 187.40625 L 121.902344 186.550781 C 122.902344 185.433594 142.488281 163.882812 168.585938 155.855469 C 157.640625 162.3125 150.277344 174.210938 150.277344 187.792969 C 150.277344 200.367188 156.585938 211.492188 166.203125 218.199219 C 141.234375 209.660156 122.875 189.351562 121.914062 188.273438 Z M 187.429688 217.765625 C 170.867188 217.765625 157.390625 204.320312 157.390625 187.792969 C 157.390625 171.265625 170.867188 157.816406 187.429688 157.816406 C 203.996094 157.816406 217.472656 171.265625 217.472656 187.792969 C 217.472656 204.320312 203.996094 217.765625 187.429688 217.765625 Z M 261.269531 185.050781 L 258.40625 181.832031 C 257.097656 180.359375 225.929688 145.785156 187.5 145.785156 C 171.421875 145.785156 154.773438 151.679688 138.011719 163.3125 C 125.613281 171.921875 117.488281 180.835938 116.589844 181.832031 L 113.730469 185.054688 C 112.535156 186.394531 112.535156 188.417969 113.730469 189.757812 L 116.59375 192.984375 C 117.46875 193.964844 125.507812 202.828125 138 211.5 C 154.757812 223.132812 171.410156 229.027344 187.5 229.027344 C 225.929688 229.027344 257.097656 194.449219 258.402344 192.980469 L 261.269531 189.761719 C 262.464844 188.417969 262.464844 186.394531 261.269531 185.050781 " fill-opacity="1" fill-rule="nonzero"/></g></svg>