<svg xmlns="http://www.w3.org/2000/svg" xmlns:xlink="http://www.w3.org/1999/xlink" width="500" zoomAndPan="magnify" viewBox="0 0 375 374.999991" height="500" preserveAspectRatio="xMidYMid meet" version="1.0"><defs><clipPath id="72b2e66c41"><path d="M 288 160 L 373 160 L 373 247 L 288 247 Z M 288 160 " clip-rule="nonzero"/></clipPath><clipPath id="eaf4c6fe56"><path d="M 288.105469 209.8125 L 337.957031 159.960938 L 375.082031 197.082031 L 325.230469 246.933594 Z M 288.105469 209.8125 " clip-rule="nonzero"/></clipPath><clipPath id="9f4c713485"><path d="M -72.21875 570.136719 L 337.726562 160.191406 L 374.847656 197.316406 L -35.097656 607.261719 Z M -72.21875 570.136719 " clip-rule="nonzero"/></clipPath><clipPath id="5de0423415"><path d="M 16 0 L 375 0 L 375 367 L 16 367 Z M 16 0 " clip-rule="nonzero"/></clipPath><clipPath id="2b3baa2998"><path d="M 49.414062 -48.152344 L 431.253906 333.683594 L 396.78125 368.15625 L 14.941406 -13.679688 Z M 49.414062 -48.152344 " clip-rule="nonzero"/></clipPath><clipPath id="40c0056275"><path d="M 49.414062 -48.152344 L 431.253906 333.683594 L 396.78125 368.15625 L 14.941406 -13.679688 Z M 49.414062 -48.152344 " clip-rule="nonzero"/></clipPath><clipPath id="0b179d756c"><path d="M 20.347656 168.078125 L 207 168.078125 L 207 354.828125 L 20.347656 354.828125 Z M 20.347656 168.078125 " clip-rule="nonzero"/></clipPath><clipPath id="93036c5d4b"><path d="M 20.347656 168.078125 L 183 168.078125 L 183 331 L 20.347656 331 Z M 20.347656 168.078125 " clip-rule="nonzero"/></clipPath></defs><rect x="-37.5" width="450" fill="#ffffff" y="-37.499999" height="449.999989" fill-opacity="1"/><rect x="-37.5" width="450" fill="#ffffff" y="-37.499999" height="449.999989" fill-opacity="1"/><g clip-path="url(#72b2e66c41)"><g clip-path="url(#eaf4c6fe56)"><g clip-path="url(#9f4c713485)"><path fill="#000000" d="M -74.109375 569.507812 L 336.324219 159.074219 L 372.761719 195.511719 L -37.671875 605.941406 Z M -74.109375 569.507812 " fill-opacity="1" fill-rule="nonzero"/></g></g></g><g clip-path="url(#5de0423415)"><g clip-path="url(#2b3baa2998)"><g clip-path="url(#40c0056275)"><path fill="#000000" d="M 50.027344 -49.886719 L 432.332031 332.414062 L 398.390625 366.355469 L 16.089844 -15.945312 Z M 50.027344 -49.886719 " fill-opacity="1" fill-rule="nonzero"/></g></g></g><g clip-path="url(#0b179d756c)"><path fill="#000000" d="M 206.910156 261.359375 C 206.910156 262.886719 206.875 264.414062 206.800781 265.9375 C 206.722656 267.464844 206.613281 268.984375 206.460938 270.503906 C 206.3125 272.023438 206.125 273.539062 205.902344 275.046875 C 205.679688 276.558594 205.417969 278.0625 205.121094 279.558594 C 204.820312 281.058594 204.488281 282.546875 204.117188 284.027344 C 203.746094 285.507812 203.339844 286.976562 202.894531 288.4375 C 202.453125 289.898438 201.972656 291.347656 201.457031 292.785156 C 200.945312 294.222656 200.394531 295.648438 199.8125 297.058594 C 199.226562 298.46875 198.609375 299.863281 197.957031 301.242188 C 197.304688 302.625 196.617188 303.988281 195.898438 305.332031 C 195.175781 306.679688 194.425781 308.007812 193.640625 309.316406 C 192.855469 310.625 192.039062 311.917969 191.191406 313.183594 C 190.34375 314.453125 189.464844 315.703125 188.554688 316.929688 C 187.644531 318.15625 186.707031 319.359375 185.738281 320.539062 C 184.769531 321.71875 183.773438 322.875 182.746094 324.003906 C 181.722656 325.136719 180.667969 326.242188 179.589844 327.320312 C 178.511719 328.402344 177.40625 329.453125 176.273438 330.476562 C 175.144531 331.503906 173.988281 332.5 172.808594 333.46875 C 171.628906 334.4375 170.425781 335.375 169.199219 336.285156 C 167.972656 337.195312 166.722656 338.074219 165.453125 338.921875 C 164.183594 339.769531 162.894531 340.585938 161.585938 341.371094 C 160.277344 342.15625 158.949219 342.910156 157.601562 343.628906 C 156.257812 344.347656 154.894531 345.035156 153.511719 345.6875 C 152.132812 346.339844 150.738281 346.957031 149.328125 347.542969 C 147.917969 348.125 146.492188 348.675781 145.054688 349.191406 C 143.617188 349.703125 142.167969 350.183594 140.707031 350.625 C 139.246094 351.070312 137.777344 351.476562 136.296875 351.847656 C 134.816406 352.21875 133.324219 352.550781 131.828125 352.851562 C 130.332031 353.148438 128.828125 353.410156 127.316406 353.632812 C 125.808594 353.855469 124.292969 354.042969 122.773438 354.191406 C 121.253906 354.34375 119.730469 354.457031 118.207031 354.53125 C 116.683594 354.605469 115.15625 354.640625 113.628906 354.640625 C 112.105469 354.640625 110.578125 354.605469 109.054688 354.53125 C 107.527344 354.457031 106.007812 354.34375 104.488281 354.191406 C 102.96875 354.042969 101.453125 353.855469 99.941406 353.632812 C 98.433594 353.410156 96.929688 353.148438 95.433594 352.851562 C 93.933594 352.550781 92.445312 352.21875 90.964844 351.847656 C 89.484375 351.476562 88.011719 351.070312 86.550781 350.625 C 85.089844 350.183594 83.640625 349.703125 82.203125 349.191406 C 80.765625 348.675781 79.34375 348.125 77.933594 347.542969 C 76.523438 346.957031 75.128906 346.339844 73.746094 345.6875 C 72.367188 345.035156 71.003906 344.347656 69.65625 343.628906 C 68.3125 342.910156 66.984375 342.15625 65.675781 341.371094 C 64.363281 340.585938 63.074219 339.769531 61.804688 338.921875 C 60.535156 338.074219 59.289062 337.195312 58.0625 336.285156 C 56.835938 335.375 55.632812 334.4375 54.453125 333.46875 C 53.273438 332.5 52.117188 331.503906 50.988281 330.476562 C 49.855469 329.453125 48.75 328.402344 47.671875 327.320312 C 46.589844 326.242188 45.539062 325.136719 44.511719 324.003906 C 43.488281 322.875 42.492188 321.71875 41.523438 320.539062 C 40.554688 319.359375 39.617188 318.15625 38.707031 316.929688 C 37.796875 315.703125 36.917969 314.453125 36.070312 313.183594 C 35.222656 311.917969 34.40625 310.625 33.621094 309.316406 C 32.835938 308.007812 32.082031 306.679688 31.363281 305.332031 C 30.644531 303.988281 29.957031 302.625 29.304688 301.242188 C 28.652344 299.863281 28.035156 298.46875 27.449219 297.058594 C 26.867188 295.648438 26.316406 294.222656 25.800781 292.785156 C 25.289062 291.347656 24.808594 289.898438 24.367188 288.4375 C 23.921875 286.976562 23.515625 285.507812 23.144531 284.027344 C 22.773438 282.546875 22.4375 281.058594 22.140625 279.558594 C 21.84375 278.0625 21.582031 276.558594 21.359375 275.046875 C 21.136719 273.539062 20.949219 272.023438 20.796875 270.503906 C 20.648438 268.984375 20.535156 267.464844 20.460938 265.9375 C 20.386719 264.414062 20.347656 262.886719 20.347656 261.359375 C 20.347656 259.835938 20.386719 258.308594 20.460938 256.785156 C 20.535156 255.257812 20.648438 253.738281 20.796875 252.21875 C 20.949219 250.699219 21.136719 249.183594 21.359375 247.675781 C 21.582031 246.164062 21.84375 244.660156 22.140625 243.164062 C 22.4375 241.664062 22.773438 240.175781 23.144531 238.695312 C 23.515625 237.214844 23.921875 235.742188 24.367188 234.28125 C 24.808594 232.820312 25.289062 231.371094 25.800781 229.9375 C 26.316406 228.5 26.867188 227.074219 27.449219 225.664062 C 28.035156 224.253906 28.652344 222.859375 29.304688 221.476562 C 29.957031 220.097656 30.644531 218.734375 31.363281 217.386719 C 32.082031 216.042969 32.835938 214.714844 33.621094 213.40625 C 34.40625 212.09375 35.222656 210.804688 36.070312 209.535156 C 36.917969 208.265625 37.796875 207.019531 38.707031 205.792969 C 39.617188 204.566406 40.554688 203.363281 41.523438 202.183594 C 42.492188 201.003906 43.488281 199.847656 44.511719 198.71875 C 45.539062 197.585938 46.589844 196.480469 47.671875 195.402344 C 48.75 194.320312 49.855469 193.269531 50.988281 192.246094 C 52.117188 191.21875 53.273438 190.222656 54.453125 189.253906 C 55.632812 188.285156 56.835938 187.347656 58.0625 186.4375 C 59.289062 185.527344 60.535156 184.648438 61.804688 183.800781 C 63.074219 182.953125 64.363281 182.136719 65.675781 181.351562 C 66.984375 180.566406 68.3125 179.8125 69.65625 179.09375 C 71.003906 178.375 72.367188 177.6875 73.746094 177.035156 C 75.128906 176.382812 76.523438 175.765625 77.933594 175.179688 C 79.34375 174.597656 80.765625 174.046875 82.203125 173.53125 C 83.640625 173.019531 85.089844 172.539062 86.550781 172.097656 C 88.011719 171.652344 89.484375 171.246094 90.964844 170.875 C 92.445312 170.503906 93.933594 170.171875 95.433594 169.871094 C 96.929688 169.574219 98.433594 169.3125 99.941406 169.089844 C 101.453125 168.867188 102.96875 168.679688 104.488281 168.527344 C 106.007812 168.378906 107.527344 168.265625 109.054688 168.191406 C 110.578125 168.117188 112.105469 168.078125 113.628906 168.078125 C 115.15625 168.078125 116.683594 168.117188 118.207031 168.191406 C 119.730469 168.265625 121.253906 168.378906 122.773438 168.527344 C 124.292969 168.679688 125.808594 168.867188 127.316406 169.089844 C 128.828125 169.3125 130.332031 169.574219 131.828125 169.871094 C 133.324219 170.171875 134.816406 170.503906 136.296875 170.875 C 137.777344 171.246094 139.246094 171.652344 140.707031 172.097656 C 142.167969 172.539062 143.617188 173.019531 145.054688 173.53125 C 146.492188 174.046875 147.917969 174.597656 149.328125 175.179688 C 150.738281 175.765625 152.132812 176.382812 153.511719 177.035156 C 154.894531 177.6875 156.257812 178.375 157.601562 179.09375 C 158.949219 179.8125 160.277344 180.566406 161.585938 181.351562 C 162.894531 182.136719 164.183594 182.953125 165.453125 183.800781 C 166.722656 184.648438 167.972656 185.527344 169.199219 186.4375 C 170.425781 187.347656 171.628906 188.285156 172.808594 189.253906 C 173.988281 190.222656 175.144531 191.21875 176.273438 192.246094 C 177.40625 193.269531 178.511719 194.320312 179.589844 195.402344 C 180.667969 196.480469 181.722656 197.585938 182.746094 198.71875 C 183.773438 199.847656 184.769531 201.003906 185.738281 202.183594 C 186.707031 203.363281 187.644531 204.566406 188.554688 205.792969 C 189.464844 207.019531 190.34375 208.265625 191.191406 209.535156 C 192.039062 210.804688 192.855469 212.09375 193.640625 213.40625 C 194.425781 214.714844 195.175781 216.042969 195.898438 217.386719 C 196.617188 218.734375 197.304688 220.097656 197.957031 221.476562 C 198.609375 222.859375 199.226562 224.253906 199.8125 225.664062 C 200.394531 227.074219 200.945312 228.5 201.457031 229.9375 C 201.972656 231.371094 202.453125 232.820312 202.894531 234.28125 C 203.339844 235.742188 203.746094 237.214844 204.117188 238.695312 C 204.488281 240.175781 204.820312 241.664062 205.121094 243.164062 C 205.417969 244.660156 205.679688 246.164062 205.902344 247.675781 C 206.125 249.183594 206.3125 250.699219 206.460938 252.21875 C 206.613281 253.738281 206.722656 255.257812 206.800781 256.785156 C 206.875 258.308594 206.910156 259.835938 206.910156 261.359375 Z M 206.910156 261.359375 " fill-opacity="1" fill-rule="nonzero"/></g><g clip-path="url(#93036c5d4b)"><path fill="#ffffff" d="M 164.695312 225.191406 C 188.75 249.234375 188.75 288.382812 164.695312 312.425781 C 140.652344 336.484375 101.503906 336.484375 77.460938 312.425781 L 76.0625 311.027344 C 70.644531 305.609375 66.34375 298.988281 63.273438 291.363281 C 59.722656 282.484375 54.472656 274.539062 47.671875 267.742188 C 39.984375 260.050781 30.804688 254.410156 20.921875 250.980469 C 21.371094 246.886719 22.09375 242.886719 23.058594 238.972656 C 35.167969 242.871094 46.558594 249.609375 56.1875 259.238281 C 64.328125 267.378906 70.421875 276.8125 74.453125 286.878906 C 76.785156 292.699219 80.140625 298.070312 84.578125 302.523438 L 85.976562 303.910156 C 105.355469 323.304688 136.800781 323.304688 156.179688 303.910156 C 165.867188 294.21875 170.726562 281.523438 170.726562 268.808594 C 170.726562 256.09375 165.867188 243.398438 156.179688 233.707031 L 154.792969 232.308594 C 150.339844 227.871094 144.96875 224.515625 139.148438 222.183594 C 129.082031 218.152344 119.648438 212.058594 111.507812 203.917969 C 101.878906 194.304688 95.140625 182.898438 91.242188 170.789062 C 95.15625 169.824219 99.15625 169.101562 103.25 168.652344 C 106.695312 178.582031 112.367188 187.746094 120.007812 195.402344 C 126.808594 202.203125 134.753906 207.453125 143.632812 211.003906 C 151.257812 214.074219 157.878906 218.375 163.296875 223.792969 Z M 164.695312 225.191406 " fill-opacity="1" fill-rule="nonzero"/></g></svg>